<?xml version="1.0" standalone="no"?>
<!DOCTYPE svg PUBLIC "-//W3C//DTD SVG 20010904//EN"
 "http://www.w3.org/TR/2001/REC-SVG-20010904/DTD/svg10.dtd">
<svg version="1.0" xmlns="http://www.w3.org/2000/svg"
 width="30.000000pt" height="30.000000pt" viewBox="0 0 127.000000 129.000000"
 preserveAspectRatio="xMidYMid meet">

<g transform="translate(0.000000,129.000000) scale(0.100000,-0.100000)"
fill="#000000" stroke="none">
<path d="M0 645 l0 -645 635 0 635 0 0 645 0 645 -635 0 -635 0 0 -645z m734
342 c22 -12 53 -39 70 -60 57 -71 45 -199 -23 -261 l-21 -19 48 -28 c97 -55
169 -157 180 -254 5 -45 1 -50 -35 -44 -5 1 -15 27 -24 58 -29 108 -87 174
-184 210 -67 25 -123 27 -195 5 -97 -29 -200 -157 -200 -251 0 -18 -6 -23 -25
-23 -22 0 -25 4 -24 38 1 79 70 194 143 240 24 15 52 32 62 38 18 11 18 13 -8
40 -58 62 -72 138 -38 212 50 109 176 155 274 99z"/>
<path d="M580 943 c-125 -65 -98 -255 39 -278 82 -14 159 45 168 129 13 115
-107 201 -207 149z"/>
</g>
</svg>
