<svg width="22" height="21" viewBox="0 0 22 21" fill="none" xmlns="http://www.w3.org/2000/svg">
<path d="M17.9999 8.49999V6.79999H13.5999V13.2H15.2999V11.2H17.2999V9.49999H15.2999V8.49999H17.9999ZM10.6999 6.79999H12.3999V13.2H10.6999V6.79999ZM7.0999 8.39999C7.4999 8.39999 7.9999 8.59999 8.2999 8.89999L9.4999 7.89999C8.8999 7.19999 7.9999 6.79999 7.0999 6.79999C5.2999 6.79999 3.8999 8.19999 3.8999 9.99999C3.8999 11.8 5.2999 13.2 7.0999 13.2C8.0999 13.2 8.8999 12.8 9.4999 12.1V9.59999H6.6999V10.8H7.8999V11.4C7.6999 11.5 7.3999 11.6 7.0999 11.6C6.1999 11.6 5.4999 10.9 5.4999 9.99999C5.4999 9.19999 6.1999 8.39999 7.0999 8.39999Z" fill="#1DA1F2"/>
<path d="M19.5 0.019989H2.5C1.26 0.019989 0.25 1.02699 0.25 2.26699V17.774C0.25 19.012 1.26 20.02 2.5 20.02H19.5C20.74 20.02 21.75 19.012 21.75 17.774V2.26699C21.75 1.02699 20.74 0.019989 19.5 0.019989ZM20.25 17.774C20.25 18.184 19.914 18.52 19.5 18.52H2.5C2.086 18.52 1.75 18.184 1.75 17.774V2.26699C1.75 1.85499 2.086 1.51999 2.5 1.51999H19.5C19.914 1.51999 20.25 1.85499 20.25 2.26699V17.774Z" fill="#1DA1F2"/>
</svg>
